:SAMPLES-PER-SECOND 30
:FULLY-SPECIFIED
:DEGREES
138
root  47.1913 40.6133 2.55365 156.007 88.8055 155.416
RightUpLeg  -3.7965 -8.23171 -5.94244
RightLeg  4.67667 0.504886 3.5068
RightFoot  0.196553 0.00358485 0.0298192
RightToes  -2.9104e-010 0 -3.6325e-017
Spine  6.12971 3.29894 7.72808
Spine1  14.4261 6.83222 -9.09954
HEad  -17.9541 16.165 -6.96789
LeftShoulder1  9.7594 -14.9037 -46.2378
LeftArm  -13.7965 7.87651 -23.9779
LeftForeArm  29.8461 -34.21 -5.8955
LeftHand  -0.244104 0.0205437 5.32207
RightShoulder  6.72928 11.9538 37.4997
RightArm  -5.79107 33.2973 29.7725
RightForeArm  -15.8638 63.7832 25.4576
RightHand  -2.63411 7.36066 -23.9565
LeftUpLeg  -1.86094 3.86758 1.74503
LeftLeg  2.3053 6.57051 -3.49678
LeftFoot  -0.230431 -0.0899736 1.0106
LeftToes  1.09107e-011 -5.80176e-011 5.60941e-012
139
root  47.2229 40.6165 2.55953 156.71 88.8081 155.998
RightUpLeg  -3.86014 -8.17309 -5.87689
RightLeg  4.63624 0.427931 3.49155
RightFoot  0.19971 0.00542586 -0.00165337
RightToes  -2.9104e-010 0 -3.6325e-017
Spine  5.93924 3.15556 7.37604
Spine1  14.7566 6.50414 -8.55576
HEad  -18.1925 16.5244 -7.43023
LeftShoulder1  9.76007 -14.8544 -46.3785
LeftArm  -13.7967 8.02155 -24.319
LeftForeArm  29.6035 -33.5442 -5.74213
LeftHand  -0.244104 0.0205437 5.32207
RightShoulder  7.08445 12.2203 38.9664
RightArm  -8.15535 32.5821 30.5503
RightForeArm  -9.93992 65.3254 27.0096
RightHand  -2.94044 8.37035 -24.7537
LeftUpLeg  -1.83361 3.89431 1.79482
LeftLeg  2.09664 6.53243 -3.53028
LeftFoot  -0.205784 -0.0858886 0.951461
LeftToes  1.09107e-011 -5.80176e-011 5.60941e-012
140
root  47.242 40.6164 2.54916 132.47 89.2868 131.897
RightUpLeg  -3.85867 -8.07942 -5.8243
RightLeg  4.77161 0.934994 3.44542
RightFoot  0.204732 0.00725569 -0.0317643
RightToes  -2.9104e-010 0 -3.6325e-017
Spine  5.91403 3.1894 6.98889
Spine1  15.0897 6.3593 -7.96375
HEad  -18.2063 17.271 -7.88835
LeftShoulder1  9.75685 -14.8171 -46.459
LeftArm  -13.4553 8.20275 -25.0062
LeftForeArm  28.8224 -31.8449 -5.3703
LeftHand  -0.244104 0.0205437 5.32207
RightShoulder  7.13227 12.4259 38.6939
RightArm  -6.90894 33.8298 31.5475
RightForeArm  -13.7154 61.8951 23.2616
RightHand  -3.23265 9.21762 -25.6039
LeftUpLeg  -1.5144 3.96367 1.82967
LeftLeg  1.96084 7.04098 -3.54699
LeftFoot  -0.262877 -0.0831809 0.91171
LeftToes  1.09107e-011 -5.80176e-011 5.60941e-012
141
root  47.2598 40.6158 2.52059 74.5379 89.4693 74.2027
RightUpLeg  -3.7619 -8.03408 -5.85655
RightLeg  4.90672 1.56674 3.38914
RightFoot  0.223279 0.00811059 -0.0456556
RightToes  -2.9104e-010 0 -3.6325e-017
Spine  6.07256 3.27444 6.82537
Spine1  15.1735 6.39051 -7.7419
HEad  -18.2597 17.9835 -8.1115
LeftShoulder1  9.74771 -14.8492 -46.3309
LeftArm  -11.9866 8.25382 -25.7506
LeftForeArm  27.4309 -29.1911 -4.82515
LeftHand  -0.244104 0.0205437 5.32207
RightShoulder  6.8957 12.4822 37.1143
RightArm  -2.70877 35.7417 32.5483
RightForeArm  -23.5455 56.1126 18.7098
RightHand  -3.36894 9.48686 -26.1745
LeftUpLeg  -1.14385 3.98563 1.776
LeftLeg  1.93534 7.66531 -3.54035
LeftFoot  -0.346908 -0.0845846 0.934311
LeftToes  1.09107e-011 -5.80176e-011 5.60941e-012
142
root  47.3128 40.6178 2.48627 49.5791 89.2459 49.3516
RightUpLeg  -3.60567 -8.06388 -5.95667
RightLeg  4.88718 1.92744 3.34932
RightFoot  0.218673 0.00871111 -0.0546213
RightToes  -2.9104e-010 0 -3.6325e-017
Spine  6.11093 3.36467 7.15234
Spine1  15.1339 6.65725 -8.20931
HEad  -18.6831 18.1239 -7.99808
LeftShoulder1  9.75209 -14.9778 -46.0198
LeftArm  -9.27483 8.11244 -26.3079
LeftForeArm  25.9292 -26.0652 -4.20276
LeftHand  -0.244104 0.0205437 5.32207
RightShoulder  6.70172 12.4971 35.896
RightArm  1.02543 36.2032 32.6343
RightForeArm  -30.1868 53.2423 17.1394
RightHand  -3.3408 9.25005 -26.3627
LeftUpLeg  -0.945481 3.95889 1.66707
LeftLeg  2.00072 8.02614 -3.53668
LeftFoot  -0.425774 -0.0911752 1.03646
LeftToes  1.09107e-011 -5.80176e-011 5.60941e-012
143
root  47.4062 40.6218 2.46298 57.943 89.2662 57.6152
RightUpLeg  -3.4615 -8.12657 -6.04057
RightLeg  4.72343 1.91665 3.34861
RightFoot  0.16493 0.00842887 -0.0490115
RightToes  -2.9104e-010 0 -3.6325e-017
Spine  5.86625 3.4399 7.64599
Spine1  15.1844 6.95429 -8.83549
HEad  -19.5842 17.7589 -7.86064
LeftShoulder1  9.7837 -15.1194 -45.8103
LeftArm  -6.73786 8.07808 -26.7188
LeftForeArm  25.2555 -23.2035 -3.70277
LeftHand  -0.244104 0.0205437 5.32207
RightShoulder  6.70839 12.4963 35.9386
RightArm  0.746601 34.63 31.8718
RightForeArm  -27.3422 55.4316 18.5144
RightHand  -3.31883 9.16081 -26.3498
LeftUpLeg  -0.959264 3.93643 1.6012
LeftLeg  2.08441 8.01234 -3.55039
LeftFoot  -0.484806 -0.100816 1.18543
LeftToes  1.09107e-011 -5.80176e-011 5.60941e-012
144
root  47.5071 40.6255 2.45896 88.975 89.4057 88.4513
RightUpLeg  -3.3519 -8.1594 -6.04736
RightLeg  4.55297 1.58076 3.36985
RightFoot  0.0761376 0.00793406 -0.0393386
RightToes  -2.9104e-010 0 -3.6325e-017
Spine  5.49557 3.36215 7.62325
Spine1  15.266 6.81734 -8.735
HEad  -20.6079 17.3976 -8.04561
LeftShoulder1  9.82277 -15.1366 -45.9561
LeftArm  -6.24525 8.67651 -27.0284
LeftForeArm  25.8414 -21.0949 -3.64068
LeftHand  -0.244104 0.0205437 5.32207
RightShoulder  6.77837 12.3893 36.6441
RightArm  -2.58052 32.3654 31.8138
RightForeArm  -17.9535 60.3313 21.9297
RightHand  -3.21065 8.93153 -25.9184
LeftUpLeg  -1.07494 3.93579 1.62235
LeftLeg  2.13237 7.66904 -3.55598
LeftFoot  -0.518508 -0.109403 1.31788
LeftToes  1.09107e-011 -5.80176e-011 5.60941e-012
145
root  47.5939 40.6284 2.47001 131.511 89.3536 130.869
RightUpLeg  -3.22908 -8.12216 -5.97934
RightLeg  4.48745 1.12734 3.36577
RightFoot  -0.0227949 0.0104763 -0.0761663
RightToes  -2.9104e-010 0 -3.6325e-017
Spine  5.18006 3.09797 7.0293
Spine1  15.2684 6.22362 -7.93727
HEad  -21.1767 16.7899 -8.21593
LeftShoulder1  9.84298 -15.0308 -46.325
LeftArm  -7.03436 9.96197 -27.2671
LeftForeArm  26.0647 -19.6196 -3.80604
LeftHand  -0.244104 0.0205437 5.32207
RightShoulder  6.82989 12.2769 37.2555
RightArm  -5.95185 30.72 33.0777
RightForeArm  -9.65696 64.5265 25.8637
RightHand  -3.14796 8.77032 -25.7101
LeftUpLeg  -1.11135 3.94992 1.69958
LeftLeg  2.137 7.22567 -3.52779
LeftFoot  -0.552958 -0.113118 1.37496
LeftToes  1.09107e-011 -5.80176e-011 5.60941e-012
146
root  47.6724 40.6298 2.48422 143.286 89.3243 142.713
RightUpLeg  -3.04686 -8.0299 -5.88269
RightLeg  4.55726 0.939112 3.32483
RightFoot  -0.125447 0.0169853 -0.174043
RightToes  -2.9104e-010 0 -3.6325e-017
Spine  4.89603 2.90014 6.49355
Spine1  15.3448 5.76057 -7.28365
HEad  -21.0104 14.9156 -7.5875
LeftShoulder1  9.84927 -14.9649 -46.5253
LeftArm  -7.68369 11.3454 -27.5526
LeftForeArm  25.2794 -18.1608 -4.07467
LeftHand  -0.244104 0.0205437 5.32207
RightShoulder  6.91616 12.322 37.6635
RightArm  -7.95989 30.1082 34.4503
RightForeArm  -6.83314 65.827 27.4017
RightHand  -3.36101 9.34034 -26.3586
LeftUpLeg  -0.9191 3.9889 1.78851
LeftLeg  2.13433 7.07058 -3.47258
LeftFoot  -0.649683 -0.110284 1.33104
LeftToes  1.09107e-011 -5.80176e-011 5.60941e-012
147
root  47.7427 40.6278 2.48899 110.174 89.5505 109.868
RightUpLeg  -2.80366 -7.94587 -5.81333
RightLeg  4.73616 1.2461 3.28943
RightFoot  -0.224557 0.0237842 -0.275986
RightToes  -2.9104e-010 0 -3.6325e-017
Spine  4.57833 2.96443 6.38401
Spine1  15.6465 5.80688 -7.22057
HEad  -20.3088 11.5644 -5.96114
LeftShoulder1  9.84717 -15.0438 -46.312
LeftArm  -8.25301 12.3559 -28.0206
LeftForeArm  24.9176 -16.4014 -4.43577
LeftHand  -0.244104 0.0205437 5.32207
RightShoulder  6.96231 12.4117 37.7056
RightArm  -7.77395 30.8824 34.908
RightForeArm  -10.3831 63.1952 24.4088
RightHand  -3.50372 9.7765 -26.6772
LeftUpLeg  -0.489271 4.06073 1.8639
LeftLeg  2.17624 7.39514 -3.41076
LeftFoot  -0.835179 -0.103605 1.22865
LeftToes  1.09107e-011 -5.80176e-011 5.60941e-012
148
root  47.7938 40.6218 2.47849 33.5187 89.4158 33.5975
RightUpLeg  -2.52728 -7.92467 -5.80316
RightLeg  4.96346 1.8683 3.29679
RightFoot  -0.309209 0.0277795 -0.334061
RightToes  -2.9104e-010 0 -3.6325e-017
Spine  4.32002 3.14854 6.50869
Spine1  15.9598 6.11466 -7.51142
HEad  -19.4079 7.75965 -3.89717
LeftShoulder1  9.81097 -15.1852 -45.7752
LeftArm  -9.06788 13.0738 -28.6148
LeftForeArm  25.9209 -14.669 -4.71572
LeftHand  -0.244104 0.0205437 5.32207
RightShoulder  6.81661 12.344 36.995
RightArm  -4.24476 33.1593 34.845
RightForeArm  -19.016 56.7787 19.0108
RightHand  -3.30596 9.40921 -25.8257
LeftUpLeg  0.0248644 4.14095 1.91223
LeftLeg  2.3121 7.97445 -3.34863
LeftFoot  -1.06967 -0.0995955 1.16957
LeftToes  1.09107e-011 -5.80176e-011 5.60941e-012
